<?xml version="1.0" encoding="utf-8"?>
<!-- Generator: Adobe Illustrator 27.5.0, SVG Export Plug-In . SVG Version: 6.00 Build 0)  -->
<svg version="1.1" xmlns="http://www.w3.org/2000/svg" xmlns:xlink="http://www.w3.org/1999/xlink" x="0px" y="0px"
	 viewBox="0 0 750 500" style="enable-background:new 0 0 750 500;" xml:space="preserve">
<g id="BACKGROUND_2">
	<g id="BG_1_">
		<g>
			<g>
				<rect style="fill:#A9DDF5;" width="750" height="500"/>
			</g>
		</g>
	</g>
	<g id="OBJECTS_2_">
		<g>
			<circle style="opacity:0.3;fill:#FFFFFF;" cx="375" cy="192.462" r="172.449"/>
			<circle style="opacity:0.3;fill:#FFFFFF;" cx="375" cy="192.462" r="126.429"/>
			<g style="opacity:0.3;">
				<circle style="opacity:0.5;fill:#FFFFFF;" cx="375" cy="192.462" r="92.678"/>
			</g>
		</g>
		<g id="OBJECTS_1_">
			<g>
				<g>
					<path style="opacity:0.2;fill:#F0F7FD;" d="M750,460.823V500H0v-39.177c83.4-58.468,220.29-96.595,375-96.595
						S666.6,402.355,750,460.823z"/>
					<path style="opacity:0.2;fill:#F0F7FD;" d="M750,347.608V500H0V347.608c108.42-34.396,237.06-54.302,375-54.302
						S641.58,313.212,750,347.608z"/>
				</g>
				<path style="opacity:0.2;fill:#F0F7FD;" d="M750,254.496V500H0V254.496c115.77-23.478,242.37-48.829,375-48.829
					S634.23,231.018,750,254.496z"/>
			</g>
		</g>
		<g>
			<g>
				<path style="fill:#FFFFFF;" d="M739.25,162.33c-5.68,4.59-13.14,6.9-20.41,6.35c1.25,0.11,1.93,1.69,1.57,2.89
					c-0.36,1.2-1.41,2.06-2.45,2.77c-10.82,7.49-24.98,7.43-38.13,7.1c-2.18-0.06-4.69-0.28-5.96-2.05
					c-1.14-1.6-0.74-3.91,0.42-5.49c1.15-1.59,3.17-3.26,4.86-4.25h-84.77c1.81-1.47,3.29-2.89,5.62-2.81
					c2.2,0.08,4.15,1.62,6.34,1.69c-0.17-3.04,1.66-6.1,4.43-7.38c2.76-1.28,6.29-0.69,8.49,1.41c0.11-1.19,0.94-2.29,2.07-2.71
					c0.78-0.29,1.66-0.25,2.42,0.09c0.57-4.97,5.52-9.73,10.18-11.51c4.93-1.89,10.68-1,15.19,1.75c-0.49-1.47-0.98-3.01-0.7-4.52
					c0.55-2.98,4.27-4.66,7.1-3.63c-0.42-0.42-0.47-1.95-0.35-2.51c1.67-8.09,8.12-14.38,15.1-18.8
					c13.15-8.32,29.32-11.74,44.72-9.44c5.08,0.76,10.16,2.16,14.43,5.02c4.27,2.86,7.64,7.34,8.27,12.44
					c0.61,4.89-1.31,9.77-3.88,13.98c-1.58,2.61-3.38,5.35-5.46,7.64c-0.14,0.17-0.29,0.34-0.45,0.5c4.2-0.6,8.62,0.55,12,3.11
					c0.99,0.75,1.93,1.68,2.22,2.89C742.62,158.98,740.94,160.96,739.25,162.33z"/>
				<path style="fill:#E0F2FC;" d="M739.25,162.33c-5.68,4.59-13.14,6.9-20.41,6.35c1.25,0.11,1.93,1.69,1.57,2.89
					c-0.36,1.2-1.41,2.06-2.45,2.77c-10.82,7.49-24.98,7.43-38.13,7.1c-2.18-0.06-4.69-0.28-5.96-2.05
					c-1.14-1.6-0.74-3.91,0.42-5.49c1.15-1.59,3.17-3.26,4.86-4.25h-48.16c0.97-2.31,3.01-4.35,6.5-5.86
					c4.08-1.78,9.14-1.03,12.54,1.84c-0.11-1.55-0.22-3.1-0.33-4.65c2.03-0.05,4.07,0.63,5.68,1.87c1.15-7.17,8.1-11.74,14.47-15.23
					c5.55-3.05,11.72-6.07,17.94-4.89c6.22,1.17,11.37,8.73,7.83,13.98c3.15-2.9,7.68-4.24,11.9-3.52
					c-2.52-5.67,3.19-13.05,9.31-12.04c6.11,1.01,9.15,9.83,4.94,14.39c2-1.94,4.21-3.68,6.58-5.18c-0.14,0.17-0.29,0.34-0.45,0.5
					c4.2-0.6,8.62,0.55,12,3.11c0.99,0.75,1.93,1.68,2.22,2.89C742.62,158.98,740.94,160.96,739.25,162.33z"/>
			</g>
			<path style="fill:#FFFFFF;" d="M510.772,89.171c-2.642,0.1-5.952,0.309-8.261,1.673c-2.503,1.478-3.037,6.024,0,7.349
				c3.431,1.496,7.223,0.812,10.456-0.917C516.74,95.259,515.052,89.009,510.772,89.171z"/>
			<path style="fill:#FFFFFF;" d="M661.605,240.879c-1.009-0.46-1.784-0.674-2.898-0.344c-0.409,0.121-0.795,0.277-1.179,0.47
				c-0.052,0.03-0.107,0.055-0.16,0.083c-0.027,0.009-0.046,0.015-0.085,0.029c-1.023,0.333-1.907,1.3-1.856,2.438
				c0.054,1.218,0.777,1.984,1.856,2.438c0.916,0.385,1.925,0.525,2.895,0.267c1.276-0.339,2.328-1.232,2.569-2.575
				C662.926,242.685,662.65,241.355,661.605,240.879z"/>
			<path style="fill:#FFFFFF;" d="M644.574,222.58c-0.603-0.191-1.221-0.223-1.849-0.257c-1.153-0.063-2.254,1.058-2.203,2.203
				c0.051,1.14,0.971,2.271,2.203,2.203c0.628-0.034,1.246-0.066,1.849-0.257C646.488,225.864,646.491,223.188,644.574,222.58z"/>
			<path style="fill:#FFFFFF;" d="M708.24,196.913c-0.603-0.191-1.221-0.223-1.849-0.257c-1.153-0.063-2.254,1.059-2.203,2.203
				c0.051,1.14,0.971,2.271,2.203,2.203c0.628-0.034,1.246-0.066,1.849-0.257C710.155,200.198,710.158,197.521,708.24,196.913z"/>
			<g>
				<path style="fill:#FFFFFF;" d="M689.657,20.23c2.42-4.41,0.24-9.95-3.04-13.78c-3.189-3.714-7.996-5.725-12.855-6.45h-57.275
					c-0.126,1.142-0.152,2.294-0.06,3.44c-3.6-1.97-7.14-0.99-10.77,0.93c-3.63,1.93-6.29,5.44-7.56,9.35
					c-3.3-3.93-8.3-6.78-13.32-5.74c-2.55,0.53-4.89,1.97-6.61,3.93c-1.65,1.9-2.71,4.29-2.78,6.81
					c-4.56-1.92-11.18,1.21-15.19,5.03h-42.13l42.84,5.11c2.16,2.05,4.95,3.44,7.9,3.86c4.28,0.6,8.81-0.86,11.93-3.86
					c0.67,3.27,2.75,6.21,5.61,7.92c2.86,1.71,6.43,2.38,9.62,1.42c-0.33,3.02,1.25,5.94,3.26,8.21c1.45,1.63,3.19,3.07,5.23,3.85
					c4.25,1.63,8.1,1.55,12.41,0.13c-0.62,1.88,0.4,4.02,2,5.21c1.6,1.19,3.63,1.6,5.61,1.79c-1.08,1.18-1.25,3.09-0.39,4.44
					c0.85,1.35,2.83,2.03,4.36,1.55c-0.33,0,0.19-0.51,0.31-0.21c0.13,0.3-0.2,0.58-0.48,0.76c-2.73,1.74-4.77,4.53-5.61,7.66
					c-0.41,1.51-0.35,3.48,1.04,4.19c0.72,0.37,1.57,0.27,2.37,0.16c3.49-0.48,7.54-1.36,9.01-4.56c1.25,1.1,2.54,2.22,4.11,2.76
					c0.97,0.33,2.01,0.42,3.03,0.37c3.31-0.16,6.53-1.78,8.63-4.35c2.1-2.56,1.8-6.39,1.28-9.66c3.71,2.55,8.44,3.17,12.94,2.98
					c2.58-0.11,5.21-0.48,7.48-1.69c3.06-1.63,5.25-4.79,5.7-8.22c0.45-3.43-0.84-7.05-3.37-9.42c2.5,0.77,5.63,0.3,6.85-2
					c1.5,4.94,6.04,8.82,11.17,9.52c1.87,0.26,3.87,0.09,5.46-0.92c1.6-1.01,2.65-3,2.16-4.83c1.35,3.45,3.6,6.61,6.7,8.62
					c3.1,2.02,7.1,2.77,10.6,1.58c0.5-0.17,0.98-0.38,1.45-0.62c2.84-1.46,5.06-4.16,5.25-7.33c1.69,1.53,4.22,3,6.07,1.67
					c1.1-0.79,1.35-2.13,1.24-3.53c2.5,2.47,5.92,4,9.71,4c3.189,0,6.116-1.092,8.453-2.909V20.23H689.657z"/>
				<path style="fill:#E0F2FC;" d="M719.277,55.5c-0.47,0.24-0.95,0.45-1.45,0.62c-3.5,1.19-7.5,0.44-10.6-1.58
					c-3.1-2.01-5.35-5.17-6.7-8.62c0.49,1.83-0.56,3.82-2.16,4.83c-1.59,1.01-3.59,1.18-5.46,0.92c-5.13-0.7-9.67-4.58-11.17-9.52
					c-1.22,2.3-4.35,2.77-6.85,2c2.53,2.37,3.82,5.99,3.37,9.42c-0.45,3.43-2.64,6.59-5.7,8.22c-2.27,1.21-4.9,1.58-7.48,1.69
					c-4.5,0.19-9.23-0.43-12.94-2.98c0.52,3.27,0.82,7.1-1.28,9.66c-2.1,2.57-5.32,4.19-8.63,4.35c-1.02,0.05-2.06-0.04-3.03-0.37
					c-1.57-0.54-2.86-1.66-4.11-2.76c-1.47,3.2-5.52,4.08-9.01,4.56c-0.8,0.11-1.65,0.21-2.37-0.16c-1.39-0.71-1.45-2.68-1.04-4.19
					c0.84-3.13,2.88-5.92,5.61-7.66c0.28-0.18,0.61-0.46,0.48-0.76c-0.12-0.3-0.64,0.21-0.31,0.21c-1.53,0.48-3.51-0.2-4.36-1.55
					c-0.86-1.35-0.69-3.26,0.39-4.44c-1.98-0.19-4.01-0.6-5.61-1.79c-1.6-1.19-2.62-3.33-2-5.21c-4.31,1.42-8.16,1.5-12.41-0.13
					c-2.04-0.78-3.78-2.22-5.23-3.85c-2.01-2.27-3.59-5.19-3.26-8.21c-3.19,0.96-6.76,0.29-9.62-1.42
					c-2.86-1.71-4.94-4.65-5.61-7.92c-3.12,3-7.65,4.46-11.93,3.86c-2.95-0.42-5.74-1.81-7.9-3.86l-42.84-5.11h42.13
					c4.01-3.82,10.63-6.95,15.19-5.03c0.07-2.52,1.13-4.91,2.78-6.81c7.57,4.73,14,10.45,18.22,16.52
					c4.71-2.47,10.69-0.88,12.9,4.18c0.75-5,6.92-7.24,11.19-5c4.39,2.31,6.48,7.41,7.62,12.23c-1.94-9.2-2.23-19.5,3.08-27.25
					c5.32-7.75,17.93-10.74,24.22-3.76c2.48,2.76,3.58,6.49,4.21,10.15c1.51,8.69,0.79,17.75-2.07,26.09
					c2.56-4.94,7.52-10.76,12.48-8.25c-2.2-4.15,2.74-9.27,7.42-8.8c4.67,0.47,8.23,4.43,10.54,8.52c0.41-3.86,4.77-6.35,8.63-5.96
					c3.86,0.38,7.18,2.87,9.97,5.57C712.167,41.56,716.517,48.23,719.277,55.5z"/>
			</g>
			<path style="fill:#FFFFFF;" d="M643.292,90.112c-0.551,0.12-1.06,0.181-1.585,0.403c-0.308,0.13-0.555,0.262-0.84,0.419
				c-0.142,0.078-0.798,0.411-0.083,0.076c-0.952,0.446-1.842,1.071-2.549,1.868c-1.333,0.957-1.48,3.402,0.176,4.152
				c-0.255-0.24-0.213-0.219,0.127,0.063c0.146,0.148,0.316,0.256,0.51,0.324c0.354,0.173,0.735,0.321,1.106,0.455
				c0.941,0.34,1.9,0.374,2.867,0.111c1.785-0.486,3.089-1.428,3.966-3.064C648.371,92.335,646.096,89.499,643.292,90.112z"/>
			<path style="fill:#FFFFFF;" d="M696.365,76.469c-0.912-0.302-1.7-0.401-2.664-0.225c-0.521,0.095-1.04,0.203-1.56,0.304
				c-1.664,0.325-2.768,2.404-2.259,3.979c0.527,1.628,2.246,2.79,3.979,2.259c0.505-0.155,1.015-0.299,1.516-0.465
				c0.895-0.295,1.514-0.799,2.147-1.465C698.929,79.378,698.248,77.093,696.365,76.469z"/>
			<path style="fill:#FFFFFF;" d="M565.877,147.821c-0.536-0.745-1.033-1.386-1.813-1.888c-0.845-0.545-2.035-0.667-3.027-0.556
				c-1.508,0.168-2.847,0.53-4.179,1.283c-1.86,1.052-2.648,3.75-1.464,5.585c1.293,2.006,3.504,2.424,5.585,1.464
				c-1.025,0.473-0.158,0.123,0.187,0.008c0.039,0.001,0.08,0.002,0.133,0.002c0.615,0,1.129,0.033,1.766-0.143
				c0.687-0.189,0.979-0.444,1.504-0.768C566.126,151.846,567.053,149.456,565.877,147.821z"/>
			<path style="fill:#FFFFFF;" d="M598.74,135.073c-0.448-1.061-1.773-1.878-2.944-1.445c-0.209,0.077-0.411,0.135-0.625,0.193
				c-0.021,0.006-0.028,0.009-0.044,0.013c-0.01-0.003-0.016-0.007-0.035-0.01c-0.109-0.017-0.229-0.015-0.348-0.013
				c-0.051-0.017-0.223-0.052-0.356-0.092c-1.333-0.405-2.963,0.483-3.277,1.861c-0.296,1.301,0.394,3.014,1.861,3.277
				c1.686,0.302,3.215,0.115,4.748-0.667C598.825,137.625,599.196,136.153,598.74,135.073z"/>
			<path style="fill:#FFFFFF;" d="M317.775,43.46c-1.037-0.403-1.092-1.996-0.336-2.813c0.756-0.817,1.95-1.033,3.058-1.129
				c4.197-0.366,8.587,0.271,12.447,1.958c-1.499-0.85-1.087-3.356,0.362-4.289c1.449-0.933,3.338-0.723,5.016-0.33
				c2.717,0.636,5.343,1.663,7.771,3.039c-1.008-2.156-1.351-4.967,0.257-6.722c1.184-1.292,3.073-1.629,4.822-1.729
				c4.404-0.254,8.779,0.399,12.833,2.138c-0.831-3.352,0.969-7.167,4.085-8.657c3.116-1.489,7.216-0.494,9.302,2.259
				c0.452-2.42,1.788-4.729,3.862-6.057c2.074-1.328,4.901-1.539,7.004-0.257c2.103,1.281,3.213,4.119,2.269,6.393
				c3.979-2.818,9.404-3.695,13.887-1.778c4.465,1.91,7.663,7.102,7.189,11.935c-0.04-0.065-0.297,0.039-0.199,0.16
				c0.117,0.145,0.347,0.062,0.511-0.027c2.748-1.495,6.227-1.559,9.028-0.166c0.283,0.141,0.568,0.303,0.751,0.56
				c0.217,0.305,0.259,0.698,0.263,1.072c0.018,1.96-0.895,3.909-2.414,5.148c1.268-0.312,2.552-0.559,3.845-0.738
				c1.145-0.159,2.333-0.262,3.439,0.077c1.105,0.339,2.181,0.973,2.352,2.116H288.29L317.775,43.46z"/>
		</g>
		<g>
			<path style="fill:#E0F2FC;" d="M127.343,329.936c-2.211-2.097-5.068-3.521-8.088-3.948c-4.387-0.62-9.024,0.878-12.221,3.946
				c-0.678-3.341-2.814-6.36-5.74-8.111c-2.925-1.751-6.583-2.435-9.849-1.454c0.339-3.086-1.284-6.077-3.345-8.399
				c-1.486-1.676-3.264-3.149-5.356-3.95c-4.345-1.664-8.292-1.585-12.71-0.125c0.643-1.933-0.41-4.124-2.044-5.34
				s-3.721-1.638-5.748-1.835c1.106-1.206,1.281-3.166,0.405-4.549c-0.876-1.382-2.901-2.069-4.464-1.585
				c0.335,0.002-0.197,0.528-0.323,0.218c-0.126-0.31,0.207-0.6,0.49-0.78c2.798-1.785,4.893-4.642,5.755-7.848
				c0.414-1.541,0.351-3.557-1.07-4.285c-0.733-0.376-1.61-0.273-2.427-0.161c-3.573,0.491-7.726,1.391-9.229,4.669
				c-1.275-1.127-2.595-2.281-4.206-2.828c-0.993-0.338-2.058-0.428-3.106-0.379c-3.392,0.158-6.687,1.817-8.834,4.447
				c-2.147,2.631-1.84,6.547-1.316,9.902c-3.798-2.617-8.638-3.252-13.246-3.055c-2.639,0.112-5.332,0.492-7.663,1.734
				c-3.128,1.667-5.37,4.9-5.835,8.414c-0.465,3.514,0.86,7.218,3.447,9.642c-2.554-0.784-5.766-0.307-7.01,2.057
				c-0.673-2.225-1.949-4.239-3.612-5.859v43.829c3.294,3.006,7.744,4.662,12.199,5.261c3.458,0.465,6.981,0.359,10.419,0.958
				c3.437,0.599,6.927,2.042,8.963,4.875s2.055,7.273-0.653,9.473c3.411,0.241,6.899-1.314,9-4.012
				c1.627,3.222,5.264,4.992,8.836,5.511c5.645,0.82,11.623-1.061,15.78-4.966s6.409-9.753,5.943-15.439
				c3.688,2.022,7.318,1.016,11.034-0.953c3.716-1.969,6.443-5.566,7.744-9.566c3.373,4.023,8.499,6.942,13.638,5.87
				c5.139-1.072,9.467-5.743,9.611-10.99c4.668,1.964,11.446-1.241,15.557-5.152h43.144L127.343,329.936z"/>
			<path style="fill:#E0F2FC;" d="M326.403,384.428h-87.502c1.248-2.43,4.67-4.111,6.915-2.556
				c-1.353-4.145,2.556-8.505,6.842-9.299c4.287-0.794,8.605,0.889,12.623,2.581c-0.528-5.545,4.665-10.674,10.233-10.841
				c5.568-0.167,10.744,3.959,12.659,9.19c1.275-2.132,3.969-3.31,6.399-2.797c2.431,0.512,4.42,2.677,4.726,5.142
				c3.195-2.908,7.941-2.94,11.773-0.946c2.189,1.138,4.086,3.603,3.281,5.935C318.585,379.404,323.649,380.911,326.403,384.428z"/>
			<path style="fill:#E0F2FC;" d="M161.374,428.286c-0.616-0.936-1.197-2.03-2.053-2.758c-0.639-0.544-1.278-1.087-1.916-1.63
				c-1.118-0.951-2.263-1.625-3.787-1.641c-1.278-0.013-2.824,0.536-3.723,1.473c-1.941,2.022-2.286,5.433-0.168,7.51
				c0.595,0.584,1.178,1.184,1.788,1.754c0.893,0.835,1.823,1.415,2.888,1.985c1.894,1.014,4.478,0.991,6.058-0.655
				C161.919,432.801,162.617,430.176,161.374,428.286z"/>
			<path style="fill:#E0F2FC;" d="M197.541,396.936c-0.729-1.782-2.007-2.008-3.758-2.252c-0.695-0.097-1.454-0.307-2.15-0.292
				c-0.715,0.015-1.466,0.22-2.172,0.334c-1.521,0.245-1.514,2.37-0.402,3.076c1.207,0.766,2.275,1.222,3.653,1.592
				c1.513,0.406,3.046,0.84,4.288-0.411C197.481,398.499,197.816,397.61,197.541,396.936z"/>
			<path style="fill:#E0F2FC;" d="M41.124,267.709c-1.8-1.48-4.864-1.013-7.076-1.03c-1.388-0.011-1.598,1.96-0.32,2.367
				c1.097,0.35,2.188,0.732,3.295,1.051c1.061,0.306,2.341,0.683,3.399,0.271C41.416,269.98,42.143,268.548,41.124,267.709z"/>
		</g>
		<g>
			<g>
				<g>
					<path style="fill:#E0F2FC;" d="M500.446,402.372c-0.004-0.035-0.003-0.071-0.006-0.106
						C500.426,402.29,500.421,402.322,500.446,402.372z"/>
					<path style="fill:#E0F2FC;" d="M673.077,413.376c1.908-0.742,2.009-3.673,0.618-5.176c-1.391-1.503-3.587-1.9-5.627-2.078
						c-7.721-0.674-15.799,0.499-22.901,3.602c2.758-1.564,1.999-6.174-0.666-7.891c-2.666-1.717-6.142-1.331-9.23-0.608
						c-5,1.17-9.831,3.059-14.298,5.592c1.855-3.967,2.486-9.138-0.473-12.367c-2.178-2.377-5.653-2.996-8.872-3.182
						c-8.103-0.467-16.152,0.733-23.611,3.934c1.53-6.168-1.783-13.187-7.517-15.927c-5.734-2.74-13.276-0.908-17.114,4.156
						c-0.832-4.453-3.29-8.7-7.105-11.143c-3.815-2.443-9.018-2.831-12.887-0.473c-3.869,2.357-5.911,7.578-4.175,11.763
						c-7.321-5.185-17.303-6.798-25.551-3.27c-8.216,3.513-14.1,13.067-13.227,21.96c0.074-0.12,0.546,0.072,0.366,0.295
						c-0.215,0.266-0.639,0.114-0.94-0.05c-5.056-2.751-11.457-2.869-16.611-0.305c-0.52,0.258-1.045,0.558-1.382,1.031
						c-0.399,0.56-0.477,1.284-0.483,1.972c-0.033,3.606,1.647,7.191,4.441,9.472c-2.333-0.574-4.695-1.028-7.075-1.359
						c-2.107-0.293-4.293-0.483-6.326,0.141c-2.033,0.624-4.013,1.79-4.327,3.893h259.224L673.077,413.376z"/>
					<path style="fill:#E0F2FC;" d="M203.142,472.329c1.258-0.489,1.324-2.421,0.407-3.412c-0.917-0.991-2.365-1.252-3.709-1.37
						c-5.089-0.444-10.414,0.329-15.096,2.374c1.818-1.031,1.318-4.07-0.439-5.202s-4.049-0.877-6.084-0.401
						c-3.296,0.771-6.48,2.017-9.425,3.686c1.223-2.615,1.638-6.023-0.312-8.152c-1.436-1.567-3.726-1.975-5.848-2.097
						c-5.341-0.307-10.647,0.483-15.564,2.593c1.008-4.066-1.175-8.693-4.955-10.499c-3.779-1.806-8.751-0.599-11.281,2.74
						c-0.548-2.936-2.169-5.735-4.684-7.346c-2.515-1.61-5.944-1.866-8.494-0.312c-2.55,1.554-3.896,4.996-2.752,7.754
						c-4.826-3.418-11.406-4.481-16.842-2.156c-5.416,2.316-9.294,8.613-8.719,14.475c0.049-0.079,0.36,0.048,0.242,0.194
						c-0.142,0.176-0.422,0.075-0.62-0.033c-3.333-1.814-7.552-1.891-10.949-0.201c-0.343,0.17-0.689,0.368-0.911,0.68
						c-0.263,0.369-0.314,0.847-0.319,1.3c-0.022,2.377,1.086,4.74,2.927,6.244c-1.538-0.379-3.095-0.678-4.664-0.896
						c-1.388-0.193-2.83-0.318-4.17,0.093c-1.34,0.411-2.645,1.18-2.853,2.566h170.873L203.142,472.329z"/>
				</g>
			</g>
			<path style="fill:#E0F2FC;" d="M750,339.821v-37.726c-0.859-0.851-1.79-1.627-2.808-2.288c-3.618-2.347-8.282-3.228-12.365-1.84
				c-4.083,1.388-7.563,4.966-7.817,9.271c-1.969-1.782-4.92-3.496-7.077-1.946c-1.278,0.918-1.572,2.483-1.449,4.117
				c-2.908-2.88-6.906-4.66-11.321-4.66c-8.888,0-16.094,7.205-16.094,16.094c0,3.808,1.33,7.301,3.54,10.057l-100.463,8.921H750z"
				/>
			<path style="fill:#E0F2FC;" d="M383.899,382.854c-2.36-0.025-5.52,0.677-7.085,2.571c0.432-0.334,0.864-0.668,1.296-1.001
				c-1.509,1.155-2.354,1.921-3.446,3.485c-1.48,2.121-0.917,5.684,0.955,7.402c0.78,0.716,1.688,1.245,2.695,1.571
				c1.333,0.431,3.542,0.224,4.707-0.616c0.104-0.075,0.22-0.124,0.327-0.191c0.052-0.012,0.105-0.024,0.158-0.037
				c0.131,0,0.26-0.02,0.393-0.012c3.446,0.194,6.739-3.168,6.586-6.586C390.323,385.841,387.591,382.893,383.899,382.854z"/>
			<path style="fill:#E0F2FC;" d="M458.458,370.236h-1.022c-2.161,0-4.232,1.901-4.132,4.132c0.1,2.239,1.816,4.132,4.132,4.132
				h1.022c2.161,0,4.232-1.901,4.132-4.132C462.49,372.13,460.775,370.236,458.458,370.236z"/>
			<path style="fill:#E0F2FC;" d="M643,280.839h-1.022c-2.161,0-4.232,1.901-4.132,4.132c0.1,2.239,1.816,4.132,4.132,4.132H643
				c2.161,0,4.232-1.901,4.132-4.132C647.032,282.733,645.317,280.839,643,280.839z"/>
			<path style="fill:#E0F2FC;" d="M621.824,441.744c-0.495-1.802-2.146-2.918-3.959-3.014c-2.895-0.153-5.523,0.496-8.333,1.116
				c-2.491,0.55-3.948,3.44-3.297,5.807c0.706,2.568,3.309,3.849,5.807,3.297c1.278-0.282,2.556-0.564,3.834-0.846
				c1.475-0.326,2.739-1.022,4.061-1.723C621.531,445.535,622.29,443.442,621.824,441.744z"/>
			<path style="fill:#E0F2FC;" d="M678.088,348.337c-0.903-0.628-1.876-0.91-2.93-1.142c-1.783-0.392-3.783-0.065-5.074,1.341
				c-0.937,1.02-1.527,2.275-1.527,3.688c0,1.337,0.582,2.742,1.527,3.688c1.367,1.367,3.229,1.747,5.074,1.341
				c1.055-0.232,2.029-0.515,2.93-1.142c1.332-0.927,2.229-2.202,2.229-3.887C680.317,350.539,679.42,349.264,678.088,348.337z"/>
			<path style="fill:#E0F2FC;" d="M555.356,329.458c-2.448-0.739-4.758-0.313-6.961,0.901c-2.552,1.405-3.596,5.131-1.996,7.612
				c1.508,2.339,5.083,3.81,7.612,1.996c0.295-0.212,0.594-0.388,0.921-0.546c-0.438,0.185-0.876,0.37-1.314,0.554
				c0.544-0.224,1.162-0.599,1.713-0.745c-0.127,0.055-0.282,0.123-0.473,0.207c0.163-0.063,0.328-0.116,0.497-0.159
				c2.072-0.601,3.839-2.671,3.739-4.91C558.992,332.083,557.578,330.129,555.356,329.458z"/>
			<path style="fill:#E0F2FC;" d="M267.313,325.353c-0.852,0.092-1.703,0.184-2.555,0.276c-1.31,0.142-2.43,0.601-3.128,1.794
				c-0.654,1.118-0.654,2.539,0,3.657c1.343,2.296,4.942,2.41,6.257,0c0.441-0.808,0.882-1.616,1.323-2.424
				C269.932,327.332,269.056,325.165,267.313,325.353z"/>
		</g>
		<g>
			<path style="fill:#FFFFFF;" d="M549.469,252.02h61.762c-3.327-1.878-39.478-4.46-39.536-3.986
				c0.344-2.71-1.721-5.464-4.402-6.037c-3.227-0.674-5.205,1.463-6.998,3.7c-2.352-9.307-5.636-17.309-14.168-22.715
				c-3.829-2.424-8.389-4.001-12.863-3.327c-4.474,0.689-9.12,3.943-9.837,8.403c-5.535-8.876-15.114-14.713-25.224-17.423
				c-10.11-2.696-20.764-2.538-31.175-1.506c4.833-2.395,9.651-4.79,14.483-7.184c3.786-1.879,8.274-5.435,6.625-9.335
				c-0.946-2.223-3.513-3.183-5.822-3.843c-14.039-4.03-28.35-5.349-42.92-4.359c2.639-0.789,5.449-1.678,7.17-3.843
				c1.707-2.165,1.534-5.994-0.989-7.084c-1.118-0.473-2.38-0.33-3.571-0.186c-6.768,0.875-13.523,1.735-20.291,2.61
				c15.659-4.159,30.186-12.447,41.73-23.805c4.072-4.015,7.844-10.726,3.943-14.914c-1.979-2.137-5.177-2.524-8.088-2.61
				c-8.604-0.258-17.222,0.832-25.482,3.241c3.685-5.865,9.178-10.325,13.781-15.502c4.603-5.177,8.489-11.73,7.758-18.613
				c-0.717-6.711-5.951-12.462-12.289-14.799c-6.338-2.352-13.508-1.635-19.789,0.889c1.047-4.675-4.23-8.776-8.991-8.489
				c-4.775,0.287-8.891,3.341-12.619,6.324c-3.356-0.86-6.51-2.323-9.794-3.427c-7.328-2.467-15.817-2.997-22.428,1.018
				c-6.596,4.03-9.981,13.638-5.464,19.918c-8.504,2.739-13.623,13.107-10.669,21.539c-5.822-2.079-12.72-0.789-17.38,3.269
				c-4.675,4.044-7.557,14.441-6.324,20.492c-4.044,0.315-7.973,2.022-10.97,4.775c-0.746,0.674-1.448,1.463-1.721,2.438
				c-0.502,1.792,0.746,3.728,2.395,4.603c1.649,0.875,3.599,0.932,5.464,0.889c7.256-0.201,14.483-1.778,21.166-4.617
				c0.23,3.771,2.51,7.371,5.851,9.163c-4.245-0.846-8.489,3.958-7.113,8.059c-9.264-3.241-19.431-0.172-28.752,2.897
				c-2.079,0.688-4.216,1.405-5.851,2.868c-2.581,2.294-3.413,6.08-2.911,9.507c0.488,3.413,2.208,7.916,3.915,10.913
				c-0.1,0.287-0.401,0.502-0.703,0.487c-21.682-1.076-43.622,4.288-62.365,15.229c-8.16,4.761-16.649,12.849-14.555,22.055
				c-12.361-10.497-30.932-8.002-46.462-3.37c-16.09,4.79-32.05,11.271-48.226,15.688h328.375
				c1.248,4.931,4.927,8.787,10.216,10.326c-16.857-4.906-34.374-7.538-51.928-7.803c-4.376-0.066-9.681,0.582-11.492,4.566
				c-2.113,4.65,2.423,9.639,6.991,11.923c-26.917-5.49-55.756-0.984-79.715,12.456c-3.478,1.951-7.333,6.02-5.021,9.27
				c1.436,2.018,4.369,2.078,6.834,1.833c7.768-0.773,15.433-2.565,22.739-5.317c-3.677,2.112-4.208,7.587-2.063,11.245
				c2.145,3.658,6.149,5.798,10.12,7.283c19.967,7.468,44.168,1.804,58.747-13.75c3.645,8.19,12.747,12.415,21.409,14.722
				c16.366,4.358,33.879,4.323,50.228-0.1c4.547-1.23,9.318-3.022,11.979-6.909c2.661-3.887,1.835-10.369-2.6-11.959
				c7.133,2.124,14.615,3.071,22.052,2.792c3.556-0.134,7.388-0.674,9.938-3.156c2.55-2.482,2.76-7.496-0.395-9.14
				c3.729,1.409,7.605,2.841,11.582,2.562c3.977-0.28,8.094-2.778,8.911-6.681c0.519-2.479-0.349-5.036-1.448-7.318
				C560.928,262.012,555.629,256.556,549.469,252.02z"/>
			<path style="fill:#E0F2FC;" d="M460.684,252.02H238.901c17.882-14.268,42.102-20.779,64.602-16.247
				c0.315-10.11,15.458-15.674,22.256-8.174c0.215-12.462,15.659-21.826,26.816-16.262c-2.71-15.989,1.807-33.039,12.031-45.616
				c2.739-3.356,6.238-6.582,10.554-6.883c5.478-0.373,10.081,4.087,12.949,8.762c9.221,15.014,7.658,35.85-3.685,49.33
				c5.965-1.491,12.49-2.868,18.097-0.315c5.607,2.553,8.776,10.827,4.273,15.028C419.299,219.985,453.371,234.898,460.684,252.02z"
				/>
		</g>
		<g>
			<g>
				<path style="fill:#FFFFFF;" d="M0,134.514h232.731l-58.982-4.329c2.075-0.806,2.184-3.993,0.672-5.627
					c-1.512-1.634-3.9-2.066-6.118-2.259c-8.395-0.733-17.177,0.543-24.899,3.916c2.999-1.701,2.173-6.713-0.725-8.58
					c-2.898-1.867-6.678-1.447-10.035-0.661c-5.436,1.272-10.688,3.326-15.545,6.079c2.017-4.313,2.702-9.935-0.515-13.446
					c-2.368-2.585-6.146-3.258-9.646-3.459c-8.81-0.507-17.562,0.797-25.671,4.277c1.663-6.706-1.938-14.338-8.173-17.317
					c-6.234-2.979-14.434-0.988-18.608,4.519c-0.904-4.842-3.577-9.459-7.725-12.116c-4.148-2.656-9.804-3.077-14.011-0.515
					c-4.207,2.563-6.427,8.24-4.539,12.789c-7.96-5.637-18.812-7.391-27.78-3.556C0.285,94.293,0.145,94.372,0,94.438V134.514z"/>
			</g>
			<path style="fill:#FFFFFF;" d="M216.526,61.268h-87.973c1.255-2.443,4.695-4.133,6.952-2.57c-1.36-4.167,2.57-8.551,6.88-9.349
				c4.31-0.798,8.651,0.894,12.691,2.595c-0.531-5.575,4.691-10.731,10.288-10.9c5.598-0.168,10.802,3.98,12.727,9.239
				c1.282-2.144,3.99-3.327,6.434-2.813c2.444,0.515,4.444,2.691,4.752,5.17c3.212-2.923,7.984-2.955,11.836-0.951
				c2.2,1.145,4.108,3.623,3.298,5.967C208.666,56.216,213.756,57.731,216.526,61.268z"/>
			<path style="fill:#FFFFFF;" d="M222.3,310.98c-2.56,1.365-5.397,3.863-4.447,6.604c0.743,2.145,3.365,2.881,5.617,3.163
				c12.485,1.56,25.99-1.715,34.854-10.645c0.925-0.931,1.849-2.058,1.811-3.37C259.845,296.891,226.091,308.958,222.3,310.98z"/>
			<path style="fill:#FFFFFF;" d="M164.572,294.488c-4.653-1.886-13.062-0.798-15.622,3.892c-1.376,2.521-0.566,5.553,1.858,7.087
				c4.534,2.868,12.398-0.318,15.546-4.226C168.384,298.723,167.539,295.691,164.572,294.488z"/>
			<path style="fill:#FFFFFF;" d="M70.884,187.257c-0.467-0.186-0.934-0.41-1.412-0.562c-0.742-0.236-1.561-0.219-2.335-0.219
				c-2.112,0-4.135,1.857-4.037,4.037c0.098,2.187,1.774,4.037,4.037,4.037c0.772,0,1.598,0.031,2.335-0.219
				c0.477-0.162,0.944-0.376,1.412-0.562c1.349-0.537,2.55-1.669,2.479-3.256C73.291,188.906,72.333,187.833,70.884,187.257z"/>
			<path style="fill:#FFFFFF;" d="M119.706,169.837c-1.121-1.206-2.606-0.776-4.052-0.548c-1.554,0.245-2.612,0.564-3.911,1.466
				c-1.063,0.738-1.001,2.489,0.373,2.856c0.618,0.165,1.259,0.401,1.903,0.431c0.779,0.036,1.576-0.185,2.334-0.331
				c1.349-0.26,3-0.346,3.623-1.776C120.3,171.193,120.277,170.452,119.706,169.837z"/>
			<path style="fill:#FFFFFF;" d="M210.571,87.741c-0.679,0.164-1.318,0.539-1.944,0.85c-1.445,0.717-1.445,3.106,0,3.823
				c0.625,0.31,1.265,0.686,1.944,0.85c1.802,0.434,3.625-0.866,3.625-2.761C214.196,88.615,212.373,87.306,210.571,87.741z"/>
			<path style="fill:#FFFFFF;" d="M237.153,84.789c-0.592-0.234-1.146-0.489-1.804-0.443c-0.51,0.036-1.02,0.116-1.528,0.173
				c-1.181,0.134-2.338,0.952-2.279,2.279c0.061,1.35,1.005,2.134,2.279,2.279c0.503,0.057,1.022,0.157,1.528,0.173
				c0.655,0.021,1.208-0.207,1.804-0.443C239.12,88.029,239.123,85.569,237.153,84.789z"/>
			<path style="fill:#FFFFFF;" d="M197.322,204.661c-1.032-0.66-2.15-0.983-3.468-0.806c-1.275,0.171-2.468,0.526-3.617,1.122
				c-0.661,0.343-1.329,0.705-1.964,1.091c-1.182,0.718-1.847,1.618-2.619,2.724c-1.513,2.167-0.051,5.941,2.604,6.4
				c1.292,0.224,2.325,0.452,3.65,0.137c0.797-0.19,1.623-0.437,2.4-0.695c0.978-0.325,1.944-0.783,2.796-1.371
				c1.281-0.885,2.029-2.001,2.356-3.398C200.104,207.732,199.302,205.712,197.322,204.661z"/>
		</g>
	</g>
</g>
<g id="BACKGROUND_1">
</g>


</svg>
